<mxfile host="app.diagrams.net" agent="Mozilla/5.0 (Windows NT 10.0; Win64; x64) AppleWebKit/537.36 (KHTML, like Gecko) Chrome/139.0.0.0 Safari/537.36" version="28.1.1">
  <diagram name="Page-1" id="TeCD-lwrfXn77IyuJhre">
    <mxGraphModel dx="1426" dy="777" grid="1" gridSize="10" guides="1" tooltips="1" connect="1" arrows="1" fold="1" page="1" pageScale="1" pageWidth="850" pageHeight="1100" math="0" shadow="0">
      <root>
        <mxCell id="0" />
        <mxCell id="1" parent="0" />
        <mxCell id="Z9NCAhQjRbjV5haQUCzH-1" value="Drone" style="swimlane;fontStyle=1;align=center;verticalAlign=top;childLayout=stackLayout;horizontal=1;startSize=28.266666666666666;horizontalStack=0;resizeParent=1;resizeParentMax=0;resizeLast=0;collapsible=0;marginBottom=0;" vertex="1" parent="1">
          <mxGeometry x="433" y="333" width="449" height="428.26666666666665" as="geometry" />
        </mxCell>
        <mxCell id="Z9NCAhQjRbjV5haQUCzH-2" value="-String droneId" style="text;strokeColor=none;fillColor=none;align=left;verticalAlign=top;spacingLeft=4;spacingRight=4;overflow=hidden;rotatable=0;points=[[0,0.5],[1,0.5]];portConstraint=eastwest;" vertex="1" parent="Z9NCAhQjRbjV5haQUCzH-1">
          <mxGeometry y="28.266666666666666" width="449" height="28" as="geometry" />
        </mxCell>
        <mxCell id="Z9NCAhQjRbjV5haQUCzH-3" value="-int batteryCharge" style="text;strokeColor=none;fillColor=none;align=left;verticalAlign=top;spacingLeft=4;spacingRight=4;overflow=hidden;rotatable=0;points=[[0,0.5],[1,0.5]];portConstraint=eastwest;" vertex="1" parent="Z9NCAhQjRbjV5haQUCzH-1">
          <mxGeometry y="56.266666666666666" width="449" height="28" as="geometry" />
        </mxCell>
        <mxCell id="Z9NCAhQjRbjV5haQUCzH-4" value="-Location currentLocation" style="text;strokeColor=none;fillColor=none;align=left;verticalAlign=top;spacingLeft=4;spacingRight=4;overflow=hidden;rotatable=0;points=[[0,0.5],[1,0.5]];portConstraint=eastwest;" vertex="1" parent="Z9NCAhQjRbjV5haQUCzH-1">
          <mxGeometry y="84.26666666666667" width="449" height="28" as="geometry" />
        </mxCell>
        <mxCell id="Z9NCAhQjRbjV5haQUCzH-5" value="-Location baseLocation" style="text;strokeColor=none;fillColor=none;align=left;verticalAlign=top;spacingLeft=4;spacingRight=4;overflow=hidden;rotatable=0;points=[[0,0.5],[1,0.5]];portConstraint=eastwest;" vertex="1" parent="Z9NCAhQjRbjV5haQUCzH-1">
          <mxGeometry y="112.26666666666667" width="449" height="28" as="geometry" />
        </mxCell>
        <mxCell id="Z9NCAhQjRbjV5haQUCzH-6" value="-Location previousLocation" style="text;strokeColor=none;fillColor=none;align=left;verticalAlign=top;spacingLeft=4;spacingRight=4;overflow=hidden;rotatable=0;points=[[0,0.5],[1,0.5]];portConstraint=eastwest;" vertex="1" parent="Z9NCAhQjRbjV5haQUCzH-1">
          <mxGeometry y="140.26666666666665" width="449" height="28" as="geometry" />
        </mxCell>
        <mxCell id="Z9NCAhQjRbjV5haQUCzH-7" value="-boolean isAvailable" style="text;strokeColor=none;fillColor=none;align=left;verticalAlign=top;spacingLeft=4;spacingRight=4;overflow=hidden;rotatable=0;points=[[0,0.5],[1,0.5]];portConstraint=eastwest;" vertex="1" parent="Z9NCAhQjRbjV5haQUCzH-1">
          <mxGeometry y="168.26666666666665" width="449" height="28" as="geometry" />
        </mxCell>
        <mxCell id="Z9NCAhQjRbjV5haQUCzH-8" style="line;strokeWidth=1;fillColor=none;align=left;verticalAlign=middle;spacingTop=-1;spacingLeft=3;spacingRight=3;rotatable=0;labelPosition=right;points=[];portConstraint=eastwest;strokeColor=inherit;" vertex="1" parent="Z9NCAhQjRbjV5haQUCzH-1">
          <mxGeometry y="196.26666666666665" width="449" height="8" as="geometry" />
        </mxCell>
        <mxCell id="Z9NCAhQjRbjV5haQUCzH-9" value="+moveToDestination(Location destination) : boolean" style="text;strokeColor=none;fillColor=none;align=left;verticalAlign=top;spacingLeft=4;spacingRight=4;overflow=hidden;rotatable=0;points=[[0,0.5],[1,0.5]];portConstraint=eastwest;" vertex="1" parent="Z9NCAhQjRbjV5haQUCzH-1">
          <mxGeometry y="204.26666666666665" width="449" height="28" as="geometry" />
        </mxCell>
        <mxCell id="Z9NCAhQjRbjV5haQUCzH-10" value="+returnToBase() : boolean" style="text;strokeColor=none;fillColor=none;align=left;verticalAlign=top;spacingLeft=4;spacingRight=4;overflow=hidden;rotatable=0;points=[[0,0.5],[1,0.5]];portConstraint=eastwest;" vertex="1" parent="Z9NCAhQjRbjV5haQUCzH-1">
          <mxGeometry y="232.26666666666665" width="449" height="28" as="geometry" />
        </mxCell>
        <mxCell id="Z9NCAhQjRbjV5haQUCzH-11" value="+rechargeBattery() : void" style="text;strokeColor=none;fillColor=none;align=left;verticalAlign=top;spacingLeft=4;spacingRight=4;overflow=hidden;rotatable=0;points=[[0,0.5],[1,0.5]];portConstraint=eastwest;" vertex="1" parent="Z9NCAhQjRbjV5haQUCzH-1">
          <mxGeometry y="260.26666666666665" width="449" height="28" as="geometry" />
        </mxCell>
        <mxCell id="Z9NCAhQjRbjV5haQUCzH-12" value="+getCurrentLocation() : Location" style="text;strokeColor=none;fillColor=none;align=left;verticalAlign=top;spacingLeft=4;spacingRight=4;overflow=hidden;rotatable=0;points=[[0,0.5],[1,0.5]];portConstraint=eastwest;" vertex="1" parent="Z9NCAhQjRbjV5haQUCzH-1">
          <mxGeometry y="288.26666666666665" width="449" height="28" as="geometry" />
        </mxCell>
        <mxCell id="Z9NCAhQjRbjV5haQUCzH-13" value="+getPreviousLocation() : Location" style="text;strokeColor=none;fillColor=none;align=left;verticalAlign=top;spacingLeft=4;spacingRight=4;overflow=hidden;rotatable=0;points=[[0,0.5],[1,0.5]];portConstraint=eastwest;" vertex="1" parent="Z9NCAhQjRbjV5haQUCzH-1">
          <mxGeometry y="316.26666666666665" width="449" height="28" as="geometry" />
        </mxCell>
        <mxCell id="Z9NCAhQjRbjV5haQUCzH-14" value="+calculateDistance(Location from, Location to) : double" style="text;strokeColor=none;fillColor=none;align=left;verticalAlign=top;spacingLeft=4;spacingRight=4;overflow=hidden;rotatable=0;points=[[0,0.5],[1,0.5]];portConstraint=eastwest;" vertex="1" parent="Z9NCAhQjRbjV5haQUCzH-1">
          <mxGeometry y="344.26666666666665" width="449" height="28" as="geometry" />
        </mxCell>
        <mxCell id="Z9NCAhQjRbjV5haQUCzH-15" value="+hasEnoughCharge(double distance) : boolean" style="text;strokeColor=none;fillColor=none;align=left;verticalAlign=top;spacingLeft=4;spacingRight=4;overflow=hidden;rotatable=0;points=[[0,0.5],[1,0.5]];portConstraint=eastwest;" vertex="1" parent="Z9NCAhQjRbjV5haQUCzH-1">
          <mxGeometry y="372.26666666666665" width="449" height="28" as="geometry" />
        </mxCell>
        <mxCell id="Z9NCAhQjRbjV5haQUCzH-16" value="+drainBattery(double distance) : void" style="text;strokeColor=none;fillColor=none;align=left;verticalAlign=top;spacingLeft=4;spacingRight=4;overflow=hidden;rotatable=0;points=[[0,0.5],[1,0.5]];portConstraint=eastwest;" vertex="1" parent="Z9NCAhQjRbjV5haQUCzH-1">
          <mxGeometry y="400.26666666666665" width="449" height="28" as="geometry" />
        </mxCell>
        <mxCell id="Z9NCAhQjRbjV5haQUCzH-17" value="Location" style="swimlane;fontStyle=1;align=center;verticalAlign=top;childLayout=stackLayout;horizontal=1;startSize=33.142857142857146;horizontalStack=0;resizeParent=1;resizeParentMax=0;resizeLast=0;collapsible=0;marginBottom=0;" vertex="1" parent="1">
          <mxGeometry x="428" y="850" width="341" height="239.14285714285714" as="geometry" />
        </mxCell>
        <mxCell id="Z9NCAhQjRbjV5haQUCzH-18" value="-double x" style="text;strokeColor=none;fillColor=none;align=left;verticalAlign=top;spacingLeft=4;spacingRight=4;overflow=hidden;rotatable=0;points=[[0,0.5],[1,0.5]];portConstraint=eastwest;" vertex="1" parent="Z9NCAhQjRbjV5haQUCzH-17">
          <mxGeometry y="33.142857142857146" width="341" height="33" as="geometry" />
        </mxCell>
        <mxCell id="Z9NCAhQjRbjV5haQUCzH-19" value="-double y" style="text;strokeColor=none;fillColor=none;align=left;verticalAlign=top;spacingLeft=4;spacingRight=4;overflow=hidden;rotatable=0;points=[[0,0.5],[1,0.5]];portConstraint=eastwest;" vertex="1" parent="Z9NCAhQjRbjV5haQUCzH-17">
          <mxGeometry y="66.14285714285714" width="341" height="33" as="geometry" />
        </mxCell>
        <mxCell id="Z9NCAhQjRbjV5haQUCzH-20" value="-double z" style="text;strokeColor=none;fillColor=none;align=left;verticalAlign=top;spacingLeft=4;spacingRight=4;overflow=hidden;rotatable=0;points=[[0,0.5],[1,0.5]];portConstraint=eastwest;" vertex="1" parent="Z9NCAhQjRbjV5haQUCzH-17">
          <mxGeometry y="99.14285714285714" width="341" height="33" as="geometry" />
        </mxCell>
        <mxCell id="Z9NCAhQjRbjV5haQUCzH-21" style="line;strokeWidth=1;fillColor=none;align=left;verticalAlign=middle;spacingTop=-1;spacingLeft=3;spacingRight=3;rotatable=0;labelPosition=right;points=[];portConstraint=eastwest;strokeColor=inherit;" vertex="1" parent="Z9NCAhQjRbjV5haQUCzH-17">
          <mxGeometry y="132.14285714285714" width="341" height="8" as="geometry" />
        </mxCell>
        <mxCell id="Z9NCAhQjRbjV5haQUCzH-22" value="+Location(double x, double y, double z)" style="text;strokeColor=none;fillColor=none;align=left;verticalAlign=top;spacingLeft=4;spacingRight=4;overflow=hidden;rotatable=0;points=[[0,0.5],[1,0.5]];portConstraint=eastwest;" vertex="1" parent="Z9NCAhQjRbjV5haQUCzH-17">
          <mxGeometry y="140.14285714285714" width="341" height="33" as="geometry" />
        </mxCell>
        <mxCell id="Z9NCAhQjRbjV5haQUCzH-23" value="+distanceTo(Location other) : double" style="text;strokeColor=none;fillColor=none;align=left;verticalAlign=top;spacingLeft=4;spacingRight=4;overflow=hidden;rotatable=0;points=[[0,0.5],[1,0.5]];portConstraint=eastwest;" vertex="1" parent="Z9NCAhQjRbjV5haQUCzH-17">
          <mxGeometry y="173.14285714285714" width="341" height="33" as="geometry" />
        </mxCell>
        <mxCell id="Z9NCAhQjRbjV5haQUCzH-24" value="+isAtBase() : boolean" style="text;strokeColor=none;fillColor=none;align=left;verticalAlign=top;spacingLeft=4;spacingRight=4;overflow=hidden;rotatable=0;points=[[0,0.5],[1,0.5]];portConstraint=eastwest;" vertex="1" parent="Z9NCAhQjRbjV5haQUCzH-17">
          <mxGeometry y="206.14285714285714" width="341" height="33" as="geometry" />
        </mxCell>
        <mxCell id="Z9NCAhQjRbjV5haQUCzH-25" value="DeliveryDrone" style="swimlane;fontStyle=1;align=center;verticalAlign=top;childLayout=stackLayout;horizontal=1;startSize=32;horizontalStack=0;resizeParent=1;resizeParentMax=0;resizeLast=0;collapsible=0;marginBottom=0;" vertex="1" parent="1">
          <mxGeometry x="20" y="838" width="358" height="264" as="geometry" />
        </mxCell>
        <mxCell id="Z9NCAhQjRbjV5haQUCzH-26" value="-double maxWeight" style="text;strokeColor=none;fillColor=none;align=left;verticalAlign=top;spacingLeft=4;spacingRight=4;overflow=hidden;rotatable=0;points=[[0,0.5],[1,0.5]];portConstraint=eastwest;" vertex="1" parent="Z9NCAhQjRbjV5haQUCzH-25">
          <mxGeometry y="32" width="358" height="32" as="geometry" />
        </mxCell>
        <mxCell id="Z9NCAhQjRbjV5haQUCzH-27" value="-double currentWeight" style="text;strokeColor=none;fillColor=none;align=left;verticalAlign=top;spacingLeft=4;spacingRight=4;overflow=hidden;rotatable=0;points=[[0,0.5],[1,0.5]];portConstraint=eastwest;" vertex="1" parent="Z9NCAhQjRbjV5haQUCzH-25">
          <mxGeometry y="64" width="358" height="32" as="geometry" />
        </mxCell>
        <mxCell id="Z9NCAhQjRbjV5haQUCzH-28" value="-Order assignedOrder" style="text;strokeColor=none;fillColor=none;align=left;verticalAlign=top;spacingLeft=4;spacingRight=4;overflow=hidden;rotatable=0;points=[[0,0.5],[1,0.5]];portConstraint=eastwest;" vertex="1" parent="Z9NCAhQjRbjV5haQUCzH-25">
          <mxGeometry y="96" width="358" height="32" as="geometry" />
        </mxCell>
        <mxCell id="Z9NCAhQjRbjV5haQUCzH-29" style="line;strokeWidth=1;fillColor=none;align=left;verticalAlign=middle;spacingTop=-1;spacingLeft=3;spacingRight=3;rotatable=0;labelPosition=right;points=[];portConstraint=eastwest;strokeColor=inherit;" vertex="1" parent="Z9NCAhQjRbjV5haQUCzH-25">
          <mxGeometry y="128" width="358" height="8" as="geometry" />
        </mxCell>
        <mxCell id="Z9NCAhQjRbjV5haQUCzH-30" value="+canCarryOrder(Order order) : boolean" style="text;strokeColor=none;fillColor=none;align=left;verticalAlign=top;spacingLeft=4;spacingRight=4;overflow=hidden;rotatable=0;points=[[0,0.5],[1,0.5]];portConstraint=eastwest;" vertex="1" parent="Z9NCAhQjRbjV5haQUCzH-25">
          <mxGeometry y="136" width="358" height="32" as="geometry" />
        </mxCell>
        <mxCell id="Z9NCAhQjRbjV5haQUCzH-31" value="+pickupFood(Order order) : void" style="text;strokeColor=none;fillColor=none;align=left;verticalAlign=top;spacingLeft=4;spacingRight=4;overflow=hidden;rotatable=0;points=[[0,0.5],[1,0.5]];portConstraint=eastwest;" vertex="1" parent="Z9NCAhQjRbjV5haQUCzH-25">
          <mxGeometry y="168" width="358" height="32" as="geometry" />
        </mxCell>
        <mxCell id="Z9NCAhQjRbjV5haQUCzH-32" value="+deliverFood() : void" style="text;strokeColor=none;fillColor=none;align=left;verticalAlign=top;spacingLeft=4;spacingRight=4;overflow=hidden;rotatable=0;points=[[0,0.5],[1,0.5]];portConstraint=eastwest;" vertex="1" parent="Z9NCAhQjRbjV5haQUCzH-25">
          <mxGeometry y="200" width="358" height="32" as="geometry" />
        </mxCell>
        <mxCell id="Z9NCAhQjRbjV5haQUCzH-33" value="+loadOrder(Order order) : boolean" style="text;strokeColor=none;fillColor=none;align=left;verticalAlign=top;spacingLeft=4;spacingRight=4;overflow=hidden;rotatable=0;points=[[0,0.5],[1,0.5]];portConstraint=eastwest;" vertex="1" parent="Z9NCAhQjRbjV5haQUCzH-25">
          <mxGeometry y="232" width="358" height="32" as="geometry" />
        </mxCell>
        <mxCell id="Z9NCAhQjRbjV5haQUCzH-34" value="PhotographyDrone" style="swimlane;fontStyle=1;align=center;verticalAlign=top;childLayout=stackLayout;horizontal=1;startSize=33.142857142857146;horizontalStack=0;resizeParent=1;resizeParentMax=0;resizeLast=0;collapsible=0;marginBottom=0;" vertex="1" parent="1">
          <mxGeometry x="819" y="850" width="365" height="239.14285714285714" as="geometry" />
        </mxCell>
        <mxCell id="Z9NCAhQjRbjV5haQUCzH-35" value="-String cameraQuality" style="text;strokeColor=none;fillColor=none;align=left;verticalAlign=top;spacingLeft=4;spacingRight=4;overflow=hidden;rotatable=0;points=[[0,0.5],[1,0.5]];portConstraint=eastwest;" vertex="1" parent="Z9NCAhQjRbjV5haQUCzH-34">
          <mxGeometry y="33.142857142857146" width="365" height="33" as="geometry" />
        </mxCell>
        <mxCell id="Z9NCAhQjRbjV5haQUCzH-36" value="-int storageCapacity" style="text;strokeColor=none;fillColor=none;align=left;verticalAlign=top;spacingLeft=4;spacingRight=4;overflow=hidden;rotatable=0;points=[[0,0.5],[1,0.5]];portConstraint=eastwest;" vertex="1" parent="Z9NCAhQjRbjV5haQUCzH-34">
          <mxGeometry y="66.14285714285714" width="365" height="33" as="geometry" />
        </mxCell>
        <mxCell id="Z9NCAhQjRbjV5haQUCzH-37" value="-int photosTaken" style="text;strokeColor=none;fillColor=none;align=left;verticalAlign=top;spacingLeft=4;spacingRight=4;overflow=hidden;rotatable=0;points=[[0,0.5],[1,0.5]];portConstraint=eastwest;" vertex="1" parent="Z9NCAhQjRbjV5haQUCzH-34">
          <mxGeometry y="99.14285714285714" width="365" height="33" as="geometry" />
        </mxCell>
        <mxCell id="Z9NCAhQjRbjV5haQUCzH-38" style="line;strokeWidth=1;fillColor=none;align=left;verticalAlign=middle;spacingTop=-1;spacingLeft=3;spacingRight=3;rotatable=0;labelPosition=right;points=[];portConstraint=eastwest;strokeColor=inherit;" vertex="1" parent="Z9NCAhQjRbjV5haQUCzH-34">
          <mxGeometry y="132.14285714285714" width="365" height="8" as="geometry" />
        </mxCell>
        <mxCell id="Z9NCAhQjRbjV5haQUCzH-39" value="+takePhoto(Location location) : Photo" style="text;strokeColor=none;fillColor=none;align=left;verticalAlign=top;spacingLeft=4;spacingRight=4;overflow=hidden;rotatable=0;points=[[0,0.5],[1,0.5]];portConstraint=eastwest;" vertex="1" parent="Z9NCAhQjRbjV5haQUCzH-34">
          <mxGeometry y="140.14285714285714" width="365" height="33" as="geometry" />
        </mxCell>
        <mxCell id="Z9NCAhQjRbjV5haQUCzH-40" value="+transmitPhotos() : void" style="text;strokeColor=none;fillColor=none;align=left;verticalAlign=top;spacingLeft=4;spacingRight=4;overflow=hidden;rotatable=0;points=[[0,0.5],[1,0.5]];portConstraint=eastwest;" vertex="1" parent="Z9NCAhQjRbjV5haQUCzH-34">
          <mxGeometry y="173.14285714285714" width="365" height="33" as="geometry" />
        </mxCell>
        <mxCell id="Z9NCAhQjRbjV5haQUCzH-41" value="+clearStorage() : void" style="text;strokeColor=none;fillColor=none;align=left;verticalAlign=top;spacingLeft=4;spacingRight=4;overflow=hidden;rotatable=0;points=[[0,0.5],[1,0.5]];portConstraint=eastwest;" vertex="1" parent="Z9NCAhQjRbjV5haQUCzH-34">
          <mxGeometry y="206.14285714285714" width="365" height="33" as="geometry" />
        </mxCell>
        <mxCell id="Z9NCAhQjRbjV5haQUCzH-42" value="SurveillanceDrone" style="swimlane;fontStyle=1;align=center;verticalAlign=top;childLayout=stackLayout;horizontal=1;startSize=32;horizontalStack=0;resizeParent=1;resizeParentMax=0;resizeLast=0;collapsible=0;marginBottom=0;" vertex="1" parent="1">
          <mxGeometry x="1781" y="838" width="359" height="264" as="geometry" />
        </mxCell>
        <mxCell id="Z9NCAhQjRbjV5haQUCzH-43" value="-boolean recordingActive" style="text;strokeColor=none;fillColor=none;align=left;verticalAlign=top;spacingLeft=4;spacingRight=4;overflow=hidden;rotatable=0;points=[[0,0.5],[1,0.5]];portConstraint=eastwest;" vertex="1" parent="Z9NCAhQjRbjV5haQUCzH-42">
          <mxGeometry y="32" width="359" height="32" as="geometry" />
        </mxCell>
        <mxCell id="Z9NCAhQjRbjV5haQUCzH-44" value="-boolean nightVision" style="text;strokeColor=none;fillColor=none;align=left;verticalAlign=top;spacingLeft=4;spacingRight=4;overflow=hidden;rotatable=0;points=[[0,0.5],[1,0.5]];portConstraint=eastwest;" vertex="1" parent="Z9NCAhQjRbjV5haQUCzH-42">
          <mxGeometry y="64" width="359" height="32" as="geometry" />
        </mxCell>
        <mxCell id="Z9NCAhQjRbjV5haQUCzH-45" value="-VideoFootage currentFootage" style="text;strokeColor=none;fillColor=none;align=left;verticalAlign=top;spacingLeft=4;spacingRight=4;overflow=hidden;rotatable=0;points=[[0,0.5],[1,0.5]];portConstraint=eastwest;" vertex="1" parent="Z9NCAhQjRbjV5haQUCzH-42">
          <mxGeometry y="96" width="359" height="32" as="geometry" />
        </mxCell>
        <mxCell id="Z9NCAhQjRbjV5haQUCzH-46" style="line;strokeWidth=1;fillColor=none;align=left;verticalAlign=middle;spacingTop=-1;spacingLeft=3;spacingRight=3;rotatable=0;labelPosition=right;points=[];portConstraint=eastwest;strokeColor=inherit;" vertex="1" parent="Z9NCAhQjRbjV5haQUCzH-42">
          <mxGeometry y="128" width="359" height="8" as="geometry" />
        </mxCell>
        <mxCell id="Z9NCAhQjRbjV5haQUCzH-47" value="+startRecording() : void" style="text;strokeColor=none;fillColor=none;align=left;verticalAlign=top;spacingLeft=4;spacingRight=4;overflow=hidden;rotatable=0;points=[[0,0.5],[1,0.5]];portConstraint=eastwest;" vertex="1" parent="Z9NCAhQjRbjV5haQUCzH-42">
          <mxGeometry y="136" width="359" height="32" as="geometry" />
        </mxCell>
        <mxCell id="Z9NCAhQjRbjV5haQUCzH-48" value="+stopRecording() : void" style="text;strokeColor=none;fillColor=none;align=left;verticalAlign=top;spacingLeft=4;spacingRight=4;overflow=hidden;rotatable=0;points=[[0,0.5],[1,0.5]];portConstraint=eastwest;" vertex="1" parent="Z9NCAhQjRbjV5haQUCzH-42">
          <mxGeometry y="168" width="359" height="32" as="geometry" />
        </mxCell>
        <mxCell id="Z9NCAhQjRbjV5haQUCzH-49" value="+transmitFootage() : void" style="text;strokeColor=none;fillColor=none;align=left;verticalAlign=top;spacingLeft=4;spacingRight=4;overflow=hidden;rotatable=0;points=[[0,0.5],[1,0.5]];portConstraint=eastwest;" vertex="1" parent="Z9NCAhQjRbjV5haQUCzH-42">
          <mxGeometry y="200" width="359" height="32" as="geometry" />
        </mxCell>
        <mxCell id="Z9NCAhQjRbjV5haQUCzH-50" value="+detectSuspiciousActivity() : boolean" style="text;strokeColor=none;fillColor=none;align=left;verticalAlign=top;spacingLeft=4;spacingRight=4;overflow=hidden;rotatable=0;points=[[0,0.5],[1,0.5]];portConstraint=eastwest;" vertex="1" parent="Z9NCAhQjRbjV5haQUCzH-42">
          <mxGeometry y="232" width="359" height="32" as="geometry" />
        </mxCell>
        <mxCell id="Z9NCAhQjRbjV5haQUCzH-51" value="DromatoApp" style="swimlane;fontStyle=1;align=center;verticalAlign=top;childLayout=stackLayout;horizontal=1;startSize=31.11111111111111;horizontalStack=0;resizeParent=1;resizeParentMax=0;resizeLast=0;collapsible=0;marginBottom=0;" vertex="1" parent="1">
          <mxGeometry x="983" y="405" width="414" height="287.1111111111111" as="geometry" />
        </mxCell>
        <mxCell id="Z9NCAhQjRbjV5haQUCzH-52" value="-String appName" style="text;strokeColor=none;fillColor=none;align=left;verticalAlign=top;spacingLeft=4;spacingRight=4;overflow=hidden;rotatable=0;points=[[0,0.5],[1,0.5]];portConstraint=eastwest;" vertex="1" parent="Z9NCAhQjRbjV5haQUCzH-51">
          <mxGeometry y="31.11111111111111" width="414" height="31" as="geometry" />
        </mxCell>
        <mxCell id="Z9NCAhQjRbjV5haQUCzH-53" value="-List&lt;DeliveryDrone&gt; deliveryFleet" style="text;strokeColor=none;fillColor=none;align=left;verticalAlign=top;spacingLeft=4;spacingRight=4;overflow=hidden;rotatable=0;points=[[0,0.5],[1,0.5]];portConstraint=eastwest;" vertex="1" parent="Z9NCAhQjRbjV5haQUCzH-51">
          <mxGeometry y="62.111111111111114" width="414" height="31" as="geometry" />
        </mxCell>
        <mxCell id="Z9NCAhQjRbjV5haQUCzH-54" value="-List&lt;Location&gt; noDroneZones" style="text;strokeColor=none;fillColor=none;align=left;verticalAlign=top;spacingLeft=4;spacingRight=4;overflow=hidden;rotatable=0;points=[[0,0.5],[1,0.5]];portConstraint=eastwest;" vertex="1" parent="Z9NCAhQjRbjV5haQUCzH-51">
          <mxGeometry y="93.11111111111111" width="414" height="31" as="geometry" />
        </mxCell>
        <mxCell id="Z9NCAhQjRbjV5haQUCzH-55" value="-List&lt;Order&gt; activeOrders" style="text;strokeColor=none;fillColor=none;align=left;verticalAlign=top;spacingLeft=4;spacingRight=4;overflow=hidden;rotatable=0;points=[[0,0.5],[1,0.5]];portConstraint=eastwest;" vertex="1" parent="Z9NCAhQjRbjV5haQUCzH-51">
          <mxGeometry y="124.11111111111111" width="414" height="31" as="geometry" />
        </mxCell>
        <mxCell id="Z9NCAhQjRbjV5haQUCzH-56" style="line;strokeWidth=1;fillColor=none;align=left;verticalAlign=middle;spacingTop=-1;spacingLeft=3;spacingRight=3;rotatable=0;labelPosition=right;points=[];portConstraint=eastwest;strokeColor=inherit;" vertex="1" parent="Z9NCAhQjRbjV5haQUCzH-51">
          <mxGeometry y="155.11111111111111" width="414" height="8" as="geometry" />
        </mxCell>
        <mxCell id="Z9NCAhQjRbjV5haQUCzH-57" value="+processOrder(Order order) : boolean" style="text;strokeColor=none;fillColor=none;align=left;verticalAlign=top;spacingLeft=4;spacingRight=4;overflow=hidden;rotatable=0;points=[[0,0.5],[1,0.5]];portConstraint=eastwest;" vertex="1" parent="Z9NCAhQjRbjV5haQUCzH-51">
          <mxGeometry y="163.11111111111111" width="414" height="31" as="geometry" />
        </mxCell>
        <mxCell id="Z9NCAhQjRbjV5haQUCzH-58" value="+assignDrone(Order order) : DeliveryDrone" style="text;strokeColor=none;fillColor=none;align=left;verticalAlign=top;spacingLeft=4;spacingRight=4;overflow=hidden;rotatable=0;points=[[0,0.5],[1,0.5]];portConstraint=eastwest;" vertex="1" parent="Z9NCAhQjRbjV5haQUCzH-51">
          <mxGeometry y="194.11111111111111" width="414" height="31" as="geometry" />
        </mxCell>
        <mxCell id="Z9NCAhQjRbjV5haQUCzH-59" value="+checkDeliveryEligibility(Order order) : boolean" style="text;strokeColor=none;fillColor=none;align=left;verticalAlign=top;spacingLeft=4;spacingRight=4;overflow=hidden;rotatable=0;points=[[0,0.5],[1,0.5]];portConstraint=eastwest;" vertex="1" parent="Z9NCAhQjRbjV5haQUCzH-51">
          <mxGeometry y="225.11111111111111" width="414" height="31" as="geometry" />
        </mxCell>
        <mxCell id="Z9NCAhQjRbjV5haQUCzH-60" value="+isInNoDroneZone(Location location) : boolean" style="text;strokeColor=none;fillColor=none;align=left;verticalAlign=top;spacingLeft=4;spacingRight=4;overflow=hidden;rotatable=0;points=[[0,0.5],[1,0.5]];portConstraint=eastwest;" vertex="1" parent="Z9NCAhQjRbjV5haQUCzH-51">
          <mxGeometry y="256.1111111111111" width="414" height="31" as="geometry" />
        </mxCell>
        <mxCell id="Z9NCAhQjRbjV5haQUCzH-61" value="DraparazziCompany" style="swimlane;fontStyle=1;align=center;verticalAlign=top;childLayout=stackLayout;horizontal=1;startSize=34.666666666666664;horizontalStack=0;resizeParent=1;resizeParentMax=0;resizeLast=0;collapsible=0;marginBottom=0;" vertex="1" parent="1">
          <mxGeometry x="1522" y="441" width="576" height="217.66666666666666" as="geometry" />
        </mxCell>
        <mxCell id="Z9NCAhQjRbjV5haQUCzH-62" value="-String companyName" style="text;strokeColor=none;fillColor=none;align=left;verticalAlign=top;spacingLeft=4;spacingRight=4;overflow=hidden;rotatable=0;points=[[0,0.5],[1,0.5]];portConstraint=eastwest;" vertex="1" parent="Z9NCAhQjRbjV5haQUCzH-61">
          <mxGeometry y="34.666666666666664" width="576" height="35" as="geometry" />
        </mxCell>
        <mxCell id="Z9NCAhQjRbjV5haQUCzH-63" value="-List&lt;PhotographyDrone&gt; photographyFleet" style="text;strokeColor=none;fillColor=none;align=left;verticalAlign=top;spacingLeft=4;spacingRight=4;overflow=hidden;rotatable=0;points=[[0,0.5],[1,0.5]];portConstraint=eastwest;" vertex="1" parent="Z9NCAhQjRbjV5haQUCzH-61">
          <mxGeometry y="69.66666666666666" width="576" height="35" as="geometry" />
        </mxCell>
        <mxCell id="Z9NCAhQjRbjV5haQUCzH-64" value="-List&lt;PhotoProject&gt; activeProjects" style="text;strokeColor=none;fillColor=none;align=left;verticalAlign=top;spacingLeft=4;spacingRight=4;overflow=hidden;rotatable=0;points=[[0,0.5],[1,0.5]];portConstraint=eastwest;" vertex="1" parent="Z9NCAhQjRbjV5haQUCzH-61">
          <mxGeometry y="104.66666666666666" width="576" height="35" as="geometry" />
        </mxCell>
        <mxCell id="Z9NCAhQjRbjV5haQUCzH-65" style="line;strokeWidth=1;fillColor=none;align=left;verticalAlign=middle;spacingTop=-1;spacingLeft=3;spacingRight=3;rotatable=0;labelPosition=right;points=[];portConstraint=eastwest;strokeColor=inherit;" vertex="1" parent="Z9NCAhQjRbjV5haQUCzH-61">
          <mxGeometry y="139.66666666666666" width="576" height="8" as="geometry" />
        </mxCell>
        <mxCell id="Z9NCAhQjRbjV5haQUCzH-66" value="+assignPhotographyTask(PhotoProject project) : PhotographyDrone" style="text;strokeColor=none;fillColor=none;align=left;verticalAlign=top;spacingLeft=4;spacingRight=4;overflow=hidden;rotatable=0;points=[[0,0.5],[1,0.5]];portConstraint=eastwest;" vertex="1" parent="Z9NCAhQjRbjV5haQUCzH-61">
          <mxGeometry y="147.66666666666666" width="576" height="35" as="geometry" />
        </mxCell>
        <mxCell id="Z9NCAhQjRbjV5haQUCzH-67" value="+processPhotos(List&lt;Photo&gt; photos) : void" style="text;strokeColor=none;fillColor=none;align=left;verticalAlign=top;spacingLeft=4;spacingRight=4;overflow=hidden;rotatable=0;points=[[0,0.5],[1,0.5]];portConstraint=eastwest;" vertex="1" parent="Z9NCAhQjRbjV5haQUCzH-61">
          <mxGeometry y="182.66666666666666" width="576" height="35" as="geometry" />
        </mxCell>
        <mxCell id="Z9NCAhQjRbjV5haQUCzH-68" value="DrogalEyesSecurity" style="swimlane;fontStyle=1;align=center;verticalAlign=top;childLayout=stackLayout;horizontal=1;startSize=34.666666666666664;horizontalStack=0;resizeParent=1;resizeParentMax=0;resizeLast=0;collapsible=0;marginBottom=0;" vertex="1" parent="1">
          <mxGeometry x="2441" y="441" width="535" height="217.66666666666666" as="geometry" />
        </mxCell>
        <mxCell id="Z9NCAhQjRbjV5haQUCzH-69" value="-String companyName" style="text;strokeColor=none;fillColor=none;align=left;verticalAlign=top;spacingLeft=4;spacingRight=4;overflow=hidden;rotatable=0;points=[[0,0.5],[1,0.5]];portConstraint=eastwest;" vertex="1" parent="Z9NCAhQjRbjV5haQUCzH-68">
          <mxGeometry y="34.666666666666664" width="535" height="35" as="geometry" />
        </mxCell>
        <mxCell id="Z9NCAhQjRbjV5haQUCzH-70" value="-List&lt;SurveillanceDrone&gt; surveillanceFleet" style="text;strokeColor=none;fillColor=none;align=left;verticalAlign=top;spacingLeft=4;spacingRight=4;overflow=hidden;rotatable=0;points=[[0,0.5],[1,0.5]];portConstraint=eastwest;" vertex="1" parent="Z9NCAhQjRbjV5haQUCzH-68">
          <mxGeometry y="69.66666666666666" width="535" height="35" as="geometry" />
        </mxCell>
        <mxCell id="Z9NCAhQjRbjV5haQUCzH-71" value="-List&lt;SecurityOfficer&gt; securityOfficers" style="text;strokeColor=none;fillColor=none;align=left;verticalAlign=top;spacingLeft=4;spacingRight=4;overflow=hidden;rotatable=0;points=[[0,0.5],[1,0.5]];portConstraint=eastwest;" vertex="1" parent="Z9NCAhQjRbjV5haQUCzH-68">
          <mxGeometry y="104.66666666666666" width="535" height="35" as="geometry" />
        </mxCell>
        <mxCell id="Z9NCAhQjRbjV5haQUCzH-72" style="line;strokeWidth=1;fillColor=none;align=left;verticalAlign=middle;spacingTop=-1;spacingLeft=3;spacingRight=3;rotatable=0;labelPosition=right;points=[];portConstraint=eastwest;strokeColor=inherit;" vertex="1" parent="Z9NCAhQjRbjV5haQUCzH-68">
          <mxGeometry y="139.66666666666666" width="535" height="8" as="geometry" />
        </mxCell>
        <mxCell id="Z9NCAhQjRbjV5haQUCzH-73" value="+deploySurveillanceDrone(Location area) : SurveillanceDrone" style="text;strokeColor=none;fillColor=none;align=left;verticalAlign=top;spacingLeft=4;spacingRight=4;overflow=hidden;rotatable=0;points=[[0,0.5],[1,0.5]];portConstraint=eastwest;" vertex="1" parent="Z9NCAhQjRbjV5haQUCzH-68">
          <mxGeometry y="147.66666666666666" width="535" height="35" as="geometry" />
        </mxCell>
        <mxCell id="Z9NCAhQjRbjV5haQUCzH-74" value="+analyzeFootage(VideoFootage footage) : ThreatReport" style="text;strokeColor=none;fillColor=none;align=left;verticalAlign=top;spacingLeft=4;spacingRight=4;overflow=hidden;rotatable=0;points=[[0,0.5],[1,0.5]];portConstraint=eastwest;" vertex="1" parent="Z9NCAhQjRbjV5haQUCzH-68">
          <mxGeometry y="182.66666666666666" width="535" height="35" as="geometry" />
        </mxCell>
        <mxCell id="Z9NCAhQjRbjV5haQUCzH-75" value="UpAwayManufacturer" style="swimlane;fontStyle=1;align=center;verticalAlign=top;childLayout=stackLayout;horizontal=1;startSize=34.666666666666664;horizontalStack=0;resizeParent=1;resizeParentMax=0;resizeLast=0;collapsible=0;marginBottom=0;" vertex="1" parent="1">
          <mxGeometry x="3026" y="441" width="520" height="217.66666666666666" as="geometry" />
        </mxCell>
        <mxCell id="Z9NCAhQjRbjV5haQUCzH-76" value="-String companyName" style="text;strokeColor=none;fillColor=none;align=left;verticalAlign=top;spacingLeft=4;spacingRight=4;overflow=hidden;rotatable=0;points=[[0,0.5],[1,0.5]];portConstraint=eastwest;" vertex="1" parent="Z9NCAhQjRbjV5haQUCzH-75">
          <mxGeometry y="34.666666666666664" width="520" height="35" as="geometry" />
        </mxCell>
        <mxCell id="Z9NCAhQjRbjV5haQUCzH-77" value="-int productionCapacity" style="text;strokeColor=none;fillColor=none;align=left;verticalAlign=top;spacingLeft=4;spacingRight=4;overflow=hidden;rotatable=0;points=[[0,0.5],[1,0.5]];portConstraint=eastwest;" vertex="1" parent="Z9NCAhQjRbjV5haQUCzH-75">
          <mxGeometry y="69.66666666666666" width="520" height="35" as="geometry" />
        </mxCell>
        <mxCell id="Z9NCAhQjRbjV5haQUCzH-78" style="line;strokeWidth=1;fillColor=none;align=left;verticalAlign=middle;spacingTop=-1;spacingLeft=3;spacingRight=3;rotatable=0;labelPosition=right;points=[];portConstraint=eastwest;strokeColor=inherit;" vertex="1" parent="Z9NCAhQjRbjV5haQUCzH-75">
          <mxGeometry y="104.66666666666666" width="520" height="8" as="geometry" />
        </mxCell>
        <mxCell id="Z9NCAhQjRbjV5haQUCzH-79" value="+manufactureDrone(String type) : Drone" style="text;strokeColor=none;fillColor=none;align=left;verticalAlign=top;spacingLeft=4;spacingRight=4;overflow=hidden;rotatable=0;points=[[0,0.5],[1,0.5]];portConstraint=eastwest;" vertex="1" parent="Z9NCAhQjRbjV5haQUCzH-75">
          <mxGeometry y="112.66666666666666" width="520" height="35" as="geometry" />
        </mxCell>
        <mxCell id="Z9NCAhQjRbjV5haQUCzH-80" value="+processBulkOrder(int quantity, String type) : List&lt;Drone&gt;" style="text;strokeColor=none;fillColor=none;align=left;verticalAlign=top;spacingLeft=4;spacingRight=4;overflow=hidden;rotatable=0;points=[[0,0.5],[1,0.5]];portConstraint=eastwest;" vertex="1" parent="Z9NCAhQjRbjV5haQUCzH-75">
          <mxGeometry y="147.66666666666666" width="520" height="35" as="geometry" />
        </mxCell>
        <mxCell id="Z9NCAhQjRbjV5haQUCzH-81" value="+deliverDrones(BulkOrder order) : void" style="text;strokeColor=none;fillColor=none;align=left;verticalAlign=top;spacingLeft=4;spacingRight=4;overflow=hidden;rotatable=0;points=[[0,0.5],[1,0.5]];portConstraint=eastwest;" vertex="1" parent="Z9NCAhQjRbjV5haQUCzH-75">
          <mxGeometry y="182.66666666666666" width="520" height="35" as="geometry" />
        </mxCell>
        <mxCell id="Z9NCAhQjRbjV5haQUCzH-82" value="DrasticMeasuresCollege" style="swimlane;fontStyle=1;align=center;verticalAlign=top;childLayout=stackLayout;horizontal=1;startSize=33.142857142857146;horizontalStack=0;resizeParent=1;resizeParentMax=0;resizeLast=0;collapsible=0;marginBottom=0;" vertex="1" parent="1">
          <mxGeometry x="2735" y="20" width="525" height="239.14285714285714" as="geometry" />
        </mxCell>
        <mxCell id="Z9NCAhQjRbjV5haQUCzH-83" value="-String collegeName" style="text;strokeColor=none;fillColor=none;align=left;verticalAlign=top;spacingLeft=4;spacingRight=4;overflow=hidden;rotatable=0;points=[[0,0.5],[1,0.5]];portConstraint=eastwest;" vertex="1" parent="Z9NCAhQjRbjV5haQUCzH-82">
          <mxGeometry y="33.142857142857146" width="525" height="33" as="geometry" />
        </mxCell>
        <mxCell id="Z9NCAhQjRbjV5haQUCzH-84" value="-int studentCount" style="text;strokeColor=none;fillColor=none;align=left;verticalAlign=top;spacingLeft=4;spacingRight=4;overflow=hidden;rotatable=0;points=[[0,0.5],[1,0.5]];portConstraint=eastwest;" vertex="1" parent="Z9NCAhQjRbjV5haQUCzH-82">
          <mxGeometry y="66.14285714285714" width="525" height="33" as="geometry" />
        </mxCell>
        <mxCell id="Z9NCAhQjRbjV5haQUCzH-85" value="-SecurityContract securityContract" style="text;strokeColor=none;fillColor=none;align=left;verticalAlign=top;spacingLeft=4;spacingRight=4;overflow=hidden;rotatable=0;points=[[0,0.5],[1,0.5]];portConstraint=eastwest;" vertex="1" parent="Z9NCAhQjRbjV5haQUCzH-82">
          <mxGeometry y="99.14285714285714" width="525" height="33" as="geometry" />
        </mxCell>
        <mxCell id="Z9NCAhQjRbjV5haQUCzH-86" style="line;strokeWidth=1;fillColor=none;align=left;verticalAlign=middle;spacingTop=-1;spacingLeft=3;spacingRight=3;rotatable=0;labelPosition=right;points=[];portConstraint=eastwest;strokeColor=inherit;" vertex="1" parent="Z9NCAhQjRbjV5haQUCzH-82">
          <mxGeometry y="132.14285714285714" width="525" height="8" as="geometry" />
        </mxCell>
        <mxCell id="Z9NCAhQjRbjV5haQUCzH-87" value="+hireSecurityService(DrogalEyesSecurity company) : void" style="text;strokeColor=none;fillColor=none;align=left;verticalAlign=top;spacingLeft=4;spacingRight=4;overflow=hidden;rotatable=0;points=[[0,0.5],[1,0.5]];portConstraint=eastwest;" vertex="1" parent="Z9NCAhQjRbjV5haQUCzH-82">
          <mxGeometry y="140.14285714285714" width="525" height="33" as="geometry" />
        </mxCell>
        <mxCell id="Z9NCAhQjRbjV5haQUCzH-88" value="+organizeEvent() : void" style="text;strokeColor=none;fillColor=none;align=left;verticalAlign=top;spacingLeft=4;spacingRight=4;overflow=hidden;rotatable=0;points=[[0,0.5],[1,0.5]];portConstraint=eastwest;" vertex="1" parent="Z9NCAhQjRbjV5haQUCzH-82">
          <mxGeometry y="173.14285714285714" width="525" height="33" as="geometry" />
        </mxCell>
        <mxCell id="Z9NCAhQjRbjV5haQUCzH-89" value="+incubateCompany(UpAwayManufacturer company) : void" style="text;strokeColor=none;fillColor=none;align=left;verticalAlign=top;spacingLeft=4;spacingRight=4;overflow=hidden;rotatable=0;points=[[0,0.5],[1,0.5]];portConstraint=eastwest;" vertex="1" parent="Z9NCAhQjRbjV5haQUCzH-82">
          <mxGeometry y="206.14285714285714" width="525" height="33" as="geometry" />
        </mxCell>
        <mxCell id="Z9NCAhQjRbjV5haQUCzH-90" value="Order" style="swimlane;fontStyle=1;align=center;verticalAlign=top;childLayout=stackLayout;horizontal=1;startSize=30.4;horizontalStack=0;resizeParent=1;resizeParentMax=0;resizeLast=0;collapsible=0;marginBottom=0;" vertex="1" parent="1">
          <mxGeometry x="1295" y="1175" width="295" height="308.4" as="geometry" />
        </mxCell>
        <mxCell id="Z9NCAhQjRbjV5haQUCzH-91" value="-String orderId" style="text;strokeColor=none;fillColor=none;align=left;verticalAlign=top;spacingLeft=4;spacingRight=4;overflow=hidden;rotatable=0;points=[[0,0.5],[1,0.5]];portConstraint=eastwest;" vertex="1" parent="Z9NCAhQjRbjV5haQUCzH-90">
          <mxGeometry y="30.4" width="295" height="30" as="geometry" />
        </mxCell>
        <mxCell id="Z9NCAhQjRbjV5haQUCzH-92" value="-String customerId" style="text;strokeColor=none;fillColor=none;align=left;verticalAlign=top;spacingLeft=4;spacingRight=4;overflow=hidden;rotatable=0;points=[[0,0.5],[1,0.5]];portConstraint=eastwest;" vertex="1" parent="Z9NCAhQjRbjV5haQUCzH-90">
          <mxGeometry y="60.4" width="295" height="30" as="geometry" />
        </mxCell>
        <mxCell id="Z9NCAhQjRbjV5haQUCzH-93" value="-double foodWeight" style="text;strokeColor=none;fillColor=none;align=left;verticalAlign=top;spacingLeft=4;spacingRight=4;overflow=hidden;rotatable=0;points=[[0,0.5],[1,0.5]];portConstraint=eastwest;" vertex="1" parent="Z9NCAhQjRbjV5haQUCzH-90">
          <mxGeometry y="90.4" width="295" height="30" as="geometry" />
        </mxCell>
        <mxCell id="Z9NCAhQjRbjV5haQUCzH-94" value="-Location deliveryLocation" style="text;strokeColor=none;fillColor=none;align=left;verticalAlign=top;spacingLeft=4;spacingRight=4;overflow=hidden;rotatable=0;points=[[0,0.5],[1,0.5]];portConstraint=eastwest;" vertex="1" parent="Z9NCAhQjRbjV5haQUCzH-90">
          <mxGeometry y="120.4" width="295" height="30" as="geometry" />
        </mxCell>
        <mxCell id="Z9NCAhQjRbjV5haQUCzH-95" value="-String paymentMethod" style="text;strokeColor=none;fillColor=none;align=left;verticalAlign=top;spacingLeft=4;spacingRight=4;overflow=hidden;rotatable=0;points=[[0,0.5],[1,0.5]];portConstraint=eastwest;" vertex="1" parent="Z9NCAhQjRbjV5haQUCzH-90">
          <mxGeometry y="150.4" width="295" height="30" as="geometry" />
        </mxCell>
        <mxCell id="Z9NCAhQjRbjV5haQUCzH-96" value="-String orderStatus" style="text;strokeColor=none;fillColor=none;align=left;verticalAlign=top;spacingLeft=4;spacingRight=4;overflow=hidden;rotatable=0;points=[[0,0.5],[1,0.5]];portConstraint=eastwest;" vertex="1" parent="Z9NCAhQjRbjV5haQUCzH-90">
          <mxGeometry y="180.4" width="295" height="30" as="geometry" />
        </mxCell>
        <mxCell id="Z9NCAhQjRbjV5haQUCzH-97" style="line;strokeWidth=1;fillColor=none;align=left;verticalAlign=middle;spacingTop=-1;spacingLeft=3;spacingRight=3;rotatable=0;labelPosition=right;points=[];portConstraint=eastwest;strokeColor=inherit;" vertex="1" parent="Z9NCAhQjRbjV5haQUCzH-90">
          <mxGeometry y="210.4" width="295" height="8" as="geometry" />
        </mxCell>
        <mxCell id="Z9NCAhQjRbjV5haQUCzH-98" value="+isCashOnDelivery() : boolean" style="text;strokeColor=none;fillColor=none;align=left;verticalAlign=top;spacingLeft=4;spacingRight=4;overflow=hidden;rotatable=0;points=[[0,0.5],[1,0.5]];portConstraint=eastwest;" vertex="1" parent="Z9NCAhQjRbjV5haQUCzH-90">
          <mxGeometry y="218.4" width="295" height="30" as="geometry" />
        </mxCell>
        <mxCell id="Z9NCAhQjRbjV5haQUCzH-99" value="+getTotalWeight() : double" style="text;strokeColor=none;fillColor=none;align=left;verticalAlign=top;spacingLeft=4;spacingRight=4;overflow=hidden;rotatable=0;points=[[0,0.5],[1,0.5]];portConstraint=eastwest;" vertex="1" parent="Z9NCAhQjRbjV5haQUCzH-90">
          <mxGeometry y="248.4" width="295" height="30" as="geometry" />
        </mxCell>
        <mxCell id="Z9NCAhQjRbjV5haQUCzH-100" value="+updateStatus(String status) : void" style="text;strokeColor=none;fillColor=none;align=left;verticalAlign=top;spacingLeft=4;spacingRight=4;overflow=hidden;rotatable=0;points=[[0,0.5],[1,0.5]];portConstraint=eastwest;" vertex="1" parent="Z9NCAhQjRbjV5haQUCzH-90">
          <mxGeometry y="278.4" width="295" height="30" as="geometry" />
        </mxCell>
        <mxCell id="Z9NCAhQjRbjV5haQUCzH-101" value="Student" style="swimlane;fontStyle=1;align=center;verticalAlign=top;childLayout=stackLayout;horizontal=1;startSize=33.142857142857146;horizontalStack=0;resizeParent=1;resizeParentMax=0;resizeLast=0;collapsible=0;marginBottom=0;" vertex="1" parent="1">
          <mxGeometry x="2496" y="850" width="287" height="239.14285714285714" as="geometry" />
        </mxCell>
        <mxCell id="Z9NCAhQjRbjV5haQUCzH-102" value="-String studentId" style="text;strokeColor=none;fillColor=none;align=left;verticalAlign=top;spacingLeft=4;spacingRight=4;overflow=hidden;rotatable=0;points=[[0,0.5],[1,0.5]];portConstraint=eastwest;" vertex="1" parent="Z9NCAhQjRbjV5haQUCzH-101">
          <mxGeometry y="33.142857142857146" width="287" height="33" as="geometry" />
        </mxCell>
        <mxCell id="Z9NCAhQjRbjV5haQUCzH-103" value="-String name" style="text;strokeColor=none;fillColor=none;align=left;verticalAlign=top;spacingLeft=4;spacingRight=4;overflow=hidden;rotatable=0;points=[[0,0.5],[1,0.5]];portConstraint=eastwest;" vertex="1" parent="Z9NCAhQjRbjV5haQUCzH-101">
          <mxGeometry y="66.14285714285714" width="287" height="33" as="geometry" />
        </mxCell>
        <mxCell id="Z9NCAhQjRbjV5haQUCzH-104" value="-String department" style="text;strokeColor=none;fillColor=none;align=left;verticalAlign=top;spacingLeft=4;spacingRight=4;overflow=hidden;rotatable=0;points=[[0,0.5],[1,0.5]];portConstraint=eastwest;" vertex="1" parent="Z9NCAhQjRbjV5haQUCzH-101">
          <mxGeometry y="99.14285714285714" width="287" height="33" as="geometry" />
        </mxCell>
        <mxCell id="Z9NCAhQjRbjV5haQUCzH-105" value="-boolean isFreelancer" style="text;strokeColor=none;fillColor=none;align=left;verticalAlign=top;spacingLeft=4;spacingRight=4;overflow=hidden;rotatable=0;points=[[0,0.5],[1,0.5]];portConstraint=eastwest;" vertex="1" parent="Z9NCAhQjRbjV5haQUCzH-101">
          <mxGeometry y="132.14285714285714" width="287" height="33" as="geometry" />
        </mxCell>
        <mxCell id="Z9NCAhQjRbjV5haQUCzH-106" style="line;strokeWidth=1;fillColor=none;align=left;verticalAlign=middle;spacingTop=-1;spacingLeft=3;spacingRight=3;rotatable=0;labelPosition=right;points=[];portConstraint=eastwest;strokeColor=inherit;" vertex="1" parent="Z9NCAhQjRbjV5haQUCzH-101">
          <mxGeometry y="165.14285714285714" width="287" height="8" as="geometry" />
        </mxCell>
        <mxCell id="Z9NCAhQjRbjV5haQUCzH-107" value="+placeOrder(Order order) : void" style="text;strokeColor=none;fillColor=none;align=left;verticalAlign=top;spacingLeft=4;spacingRight=4;overflow=hidden;rotatable=0;points=[[0,0.5],[1,0.5]];portConstraint=eastwest;" vertex="1" parent="Z9NCAhQjRbjV5haQUCzH-101">
          <mxGeometry y="173.14285714285714" width="287" height="33" as="geometry" />
        </mxCell>
        <mxCell id="Z9NCAhQjRbjV5haQUCzH-108" value="+joinPhotographyProject() : void" style="text;strokeColor=none;fillColor=none;align=left;verticalAlign=top;spacingLeft=4;spacingRight=4;overflow=hidden;rotatable=0;points=[[0,0.5],[1,0.5]];portConstraint=eastwest;" vertex="1" parent="Z9NCAhQjRbjV5haQUCzH-101">
          <mxGeometry y="206.14285714285714" width="287" height="33" as="geometry" />
        </mxCell>
        <mxCell id="Z9NCAhQjRbjV5haQUCzH-109" value="SecurityOfficer" style="swimlane;fontStyle=1;align=center;verticalAlign=top;childLayout=stackLayout;horizontal=1;startSize=34.666666666666664;horizontalStack=0;resizeParent=1;resizeParentMax=0;resizeLast=0;collapsible=0;marginBottom=0;" vertex="1" parent="1">
          <mxGeometry x="2663" y="1223" width="479" height="217.66666666666666" as="geometry" />
        </mxCell>
        <mxCell id="Z9NCAhQjRbjV5haQUCzH-110" value="-String officerId" style="text;strokeColor=none;fillColor=none;align=left;verticalAlign=top;spacingLeft=4;spacingRight=4;overflow=hidden;rotatable=0;points=[[0,0.5],[1,0.5]];portConstraint=eastwest;" vertex="1" parent="Z9NCAhQjRbjV5haQUCzH-109">
          <mxGeometry y="34.666666666666664" width="479" height="35" as="geometry" />
        </mxCell>
        <mxCell id="Z9NCAhQjRbjV5haQUCzH-111" value="-String name" style="text;strokeColor=none;fillColor=none;align=left;verticalAlign=top;spacingLeft=4;spacingRight=4;overflow=hidden;rotatable=0;points=[[0,0.5],[1,0.5]];portConstraint=eastwest;" vertex="1" parent="Z9NCAhQjRbjV5haQUCzH-109">
          <mxGeometry y="69.66666666666666" width="479" height="35" as="geometry" />
        </mxCell>
        <mxCell id="Z9NCAhQjRbjV5haQUCzH-112" value="-int experience" style="text;strokeColor=none;fillColor=none;align=left;verticalAlign=top;spacingLeft=4;spacingRight=4;overflow=hidden;rotatable=0;points=[[0,0.5],[1,0.5]];portConstraint=eastwest;" vertex="1" parent="Z9NCAhQjRbjV5haQUCzH-109">
          <mxGeometry y="104.66666666666666" width="479" height="35" as="geometry" />
        </mxCell>
        <mxCell id="Z9NCAhQjRbjV5haQUCzH-113" style="line;strokeWidth=1;fillColor=none;align=left;verticalAlign=middle;spacingTop=-1;spacingLeft=3;spacingRight=3;rotatable=0;labelPosition=right;points=[];portConstraint=eastwest;strokeColor=inherit;" vertex="1" parent="Z9NCAhQjRbjV5haQUCzH-109">
          <mxGeometry y="139.66666666666666" width="479" height="8" as="geometry" />
        </mxCell>
        <mxCell id="Z9NCAhQjRbjV5haQUCzH-114" value="+analyzeFootage(VideoFootage footage) : ThreatReport" style="text;strokeColor=none;fillColor=none;align=left;verticalAlign=top;spacingLeft=4;spacingRight=4;overflow=hidden;rotatable=0;points=[[0,0.5],[1,0.5]];portConstraint=eastwest;" vertex="1" parent="Z9NCAhQjRbjV5haQUCzH-109">
          <mxGeometry y="147.66666666666666" width="479" height="35" as="geometry" />
        </mxCell>
        <mxCell id="Z9NCAhQjRbjV5haQUCzH-115" value="+generateReport() : SecurityReport" style="text;strokeColor=none;fillColor=none;align=left;verticalAlign=top;spacingLeft=4;spacingRight=4;overflow=hidden;rotatable=0;points=[[0,0.5],[1,0.5]];portConstraint=eastwest;" vertex="1" parent="Z9NCAhQjRbjV5haQUCzH-109">
          <mxGeometry y="182.66666666666666" width="479" height="35" as="geometry" />
        </mxCell>
        <mxCell id="Z9NCAhQjRbjV5haQUCzH-116" value="Photo" style="swimlane;fontStyle=1;align=center;verticalAlign=top;childLayout=stackLayout;horizontal=1;startSize=33.45454545454545;horizontalStack=0;resizeParent=1;resizeParentMax=0;resizeLast=0;collapsible=0;marginBottom=0;" vertex="1" parent="1">
          <mxGeometry x="513" y="1235" width="175" height="182.45454545454544" as="geometry" />
        </mxCell>
        <mxCell id="Z9NCAhQjRbjV5haQUCzH-117" value="-String photoId" style="text;strokeColor=none;fillColor=none;align=left;verticalAlign=top;spacingLeft=4;spacingRight=4;overflow=hidden;rotatable=0;points=[[0,0.5],[1,0.5]];portConstraint=eastwest;" vertex="1" parent="Z9NCAhQjRbjV5haQUCzH-116">
          <mxGeometry y="33.45454545454545" width="175" height="33" as="geometry" />
        </mxCell>
        <mxCell id="Z9NCAhQjRbjV5haQUCzH-118" value="-String timestamp" style="text;strokeColor=none;fillColor=none;align=left;verticalAlign=top;spacingLeft=4;spacingRight=4;overflow=hidden;rotatable=0;points=[[0,0.5],[1,0.5]];portConstraint=eastwest;" vertex="1" parent="Z9NCAhQjRbjV5haQUCzH-116">
          <mxGeometry y="66.45454545454545" width="175" height="33" as="geometry" />
        </mxCell>
        <mxCell id="Z9NCAhQjRbjV5haQUCzH-119" value="-Location location" style="text;strokeColor=none;fillColor=none;align=left;verticalAlign=top;spacingLeft=4;spacingRight=4;overflow=hidden;rotatable=0;points=[[0,0.5],[1,0.5]];portConstraint=eastwest;" vertex="1" parent="Z9NCAhQjRbjV5haQUCzH-116">
          <mxGeometry y="99.45454545454545" width="175" height="33" as="geometry" />
        </mxCell>
        <mxCell id="Z9NCAhQjRbjV5haQUCzH-120" value="-String quality" style="text;strokeColor=none;fillColor=none;align=left;verticalAlign=top;spacingLeft=4;spacingRight=4;overflow=hidden;rotatable=0;points=[[0,0.5],[1,0.5]];portConstraint=eastwest;" vertex="1" parent="Z9NCAhQjRbjV5haQUCzH-116">
          <mxGeometry y="132.45454545454544" width="175" height="33" as="geometry" />
        </mxCell>
        <mxCell id="Z9NCAhQjRbjV5haQUCzH-121" style="line;strokeWidth=1;fillColor=none;align=left;verticalAlign=middle;spacingTop=-1;spacingLeft=3;spacingRight=3;rotatable=0;labelPosition=right;points=[];portConstraint=eastwest;strokeColor=inherit;" vertex="1" parent="Z9NCAhQjRbjV5haQUCzH-116">
          <mxGeometry y="165.45454545454544" width="175" height="17" as="geometry" />
        </mxCell>
        <mxCell id="Z9NCAhQjRbjV5haQUCzH-122" value="VideoFootage" style="swimlane;fontStyle=1;align=center;verticalAlign=top;childLayout=stackLayout;horizontal=1;startSize=33.45454545454545;horizontalStack=0;resizeParent=1;resizeParentMax=0;resizeLast=0;collapsible=0;marginBottom=0;" vertex="1" parent="1">
          <mxGeometry x="2099" y="1235" width="293" height="182.45454545454544" as="geometry" />
        </mxCell>
        <mxCell id="Z9NCAhQjRbjV5haQUCzH-123" value="-String footageId" style="text;strokeColor=none;fillColor=none;align=left;verticalAlign=top;spacingLeft=4;spacingRight=4;overflow=hidden;rotatable=0;points=[[0,0.5],[1,0.5]];portConstraint=eastwest;" vertex="1" parent="Z9NCAhQjRbjV5haQUCzH-122">
          <mxGeometry y="33.45454545454545" width="293" height="33" as="geometry" />
        </mxCell>
        <mxCell id="Z9NCAhQjRbjV5haQUCzH-124" value="-int duration" style="text;strokeColor=none;fillColor=none;align=left;verticalAlign=top;spacingLeft=4;spacingRight=4;overflow=hidden;rotatable=0;points=[[0,0.5],[1,0.5]];portConstraint=eastwest;" vertex="1" parent="Z9NCAhQjRbjV5haQUCzH-122">
          <mxGeometry y="66.45454545454545" width="293" height="33" as="geometry" />
        </mxCell>
        <mxCell id="Z9NCAhQjRbjV5haQUCzH-125" value="-Location location" style="text;strokeColor=none;fillColor=none;align=left;verticalAlign=top;spacingLeft=4;spacingRight=4;overflow=hidden;rotatable=0;points=[[0,0.5],[1,0.5]];portConstraint=eastwest;" vertex="1" parent="Z9NCAhQjRbjV5haQUCzH-122">
          <mxGeometry y="99.45454545454545" width="293" height="33" as="geometry" />
        </mxCell>
        <mxCell id="Z9NCAhQjRbjV5haQUCzH-126" value="-boolean hasSuspiciousActivity" style="text;strokeColor=none;fillColor=none;align=left;verticalAlign=top;spacingLeft=4;spacingRight=4;overflow=hidden;rotatable=0;points=[[0,0.5],[1,0.5]];portConstraint=eastwest;" vertex="1" parent="Z9NCAhQjRbjV5haQUCzH-122">
          <mxGeometry y="132.45454545454544" width="293" height="33" as="geometry" />
        </mxCell>
        <mxCell id="Z9NCAhQjRbjV5haQUCzH-127" style="line;strokeWidth=1;fillColor=none;align=left;verticalAlign=middle;spacingTop=-1;spacingLeft=3;spacingRight=3;rotatable=0;labelPosition=right;points=[];portConstraint=eastwest;strokeColor=inherit;" vertex="1" parent="Z9NCAhQjRbjV5haQUCzH-122">
          <mxGeometry y="165.45454545454544" width="293" height="17" as="geometry" />
        </mxCell>
        <mxCell id="Z9NCAhQjRbjV5haQUCzH-128" value="PhotoProject" style="swimlane;fontStyle=1;align=center;verticalAlign=top;childLayout=stackLayout;horizontal=1;startSize=33.45454545454545;horizontalStack=0;resizeParent=1;resizeParentMax=0;resizeLast=0;collapsible=0;marginBottom=0;" vertex="1" parent="1">
          <mxGeometry x="2190" y="874" width="245" height="182.45454545454544" as="geometry" />
        </mxCell>
        <mxCell id="Z9NCAhQjRbjV5haQUCzH-129" value="-String projectId" style="text;strokeColor=none;fillColor=none;align=left;verticalAlign=top;spacingLeft=4;spacingRight=4;overflow=hidden;rotatable=0;points=[[0,0.5],[1,0.5]];portConstraint=eastwest;" vertex="1" parent="Z9NCAhQjRbjV5haQUCzH-128">
          <mxGeometry y="33.45454545454545" width="245" height="33" as="geometry" />
        </mxCell>
        <mxCell id="Z9NCAhQjRbjV5haQUCzH-130" value="-String clientName" style="text;strokeColor=none;fillColor=none;align=left;verticalAlign=top;spacingLeft=4;spacingRight=4;overflow=hidden;rotatable=0;points=[[0,0.5],[1,0.5]];portConstraint=eastwest;" vertex="1" parent="Z9NCAhQjRbjV5haQUCzH-128">
          <mxGeometry y="66.45454545454545" width="245" height="33" as="geometry" />
        </mxCell>
        <mxCell id="Z9NCAhQjRbjV5haQUCzH-131" value="-Location shootLocation" style="text;strokeColor=none;fillColor=none;align=left;verticalAlign=top;spacingLeft=4;spacingRight=4;overflow=hidden;rotatable=0;points=[[0,0.5],[1,0.5]];portConstraint=eastwest;" vertex="1" parent="Z9NCAhQjRbjV5haQUCzH-128">
          <mxGeometry y="99.45454545454545" width="245" height="33" as="geometry" />
        </mxCell>
        <mxCell id="Z9NCAhQjRbjV5haQUCzH-132" value="-String deadline" style="text;strokeColor=none;fillColor=none;align=left;verticalAlign=top;spacingLeft=4;spacingRight=4;overflow=hidden;rotatable=0;points=[[0,0.5],[1,0.5]];portConstraint=eastwest;" vertex="1" parent="Z9NCAhQjRbjV5haQUCzH-128">
          <mxGeometry y="132.45454545454544" width="245" height="33" as="geometry" />
        </mxCell>
        <mxCell id="Z9NCAhQjRbjV5haQUCzH-133" style="line;strokeWidth=1;fillColor=none;align=left;verticalAlign=middle;spacingTop=-1;spacingLeft=3;spacingRight=3;rotatable=0;labelPosition=right;points=[];portConstraint=eastwest;strokeColor=inherit;" vertex="1" parent="Z9NCAhQjRbjV5haQUCzH-128">
          <mxGeometry y="165.45454545454544" width="245" height="17" as="geometry" />
        </mxCell>
        <mxCell id="Z9NCAhQjRbjV5haQUCzH-134" value="BulkOrder" style="swimlane;fontStyle=1;align=center;verticalAlign=top;childLayout=stackLayout;horizontal=1;startSize=33.45454545454545;horizontalStack=0;resizeParent=1;resizeParentMax=0;resizeLast=0;collapsible=0;marginBottom=0;" vertex="1" parent="1">
          <mxGeometry x="3163" y="874" width="246" height="182.45454545454544" as="geometry" />
        </mxCell>
        <mxCell id="Z9NCAhQjRbjV5haQUCzH-135" value="-String orderId" style="text;strokeColor=none;fillColor=none;align=left;verticalAlign=top;spacingLeft=4;spacingRight=4;overflow=hidden;rotatable=0;points=[[0,0.5],[1,0.5]];portConstraint=eastwest;" vertex="1" parent="Z9NCAhQjRbjV5haQUCzH-134">
          <mxGeometry y="33.45454545454545" width="246" height="33" as="geometry" />
        </mxCell>
        <mxCell id="Z9NCAhQjRbjV5haQUCzH-136" value="-int quantity" style="text;strokeColor=none;fillColor=none;align=left;verticalAlign=top;spacingLeft=4;spacingRight=4;overflow=hidden;rotatable=0;points=[[0,0.5],[1,0.5]];portConstraint=eastwest;" vertex="1" parent="Z9NCAhQjRbjV5haQUCzH-134">
          <mxGeometry y="66.45454545454545" width="246" height="33" as="geometry" />
        </mxCell>
        <mxCell id="Z9NCAhQjRbjV5haQUCzH-137" value="-String droneType" style="text;strokeColor=none;fillColor=none;align=left;verticalAlign=top;spacingLeft=4;spacingRight=4;overflow=hidden;rotatable=0;points=[[0,0.5],[1,0.5]];portConstraint=eastwest;" vertex="1" parent="Z9NCAhQjRbjV5haQUCzH-134">
          <mxGeometry y="99.45454545454545" width="246" height="33" as="geometry" />
        </mxCell>
        <mxCell id="Z9NCAhQjRbjV5haQUCzH-138" value="-String customerCompany" style="text;strokeColor=none;fillColor=none;align=left;verticalAlign=top;spacingLeft=4;spacingRight=4;overflow=hidden;rotatable=0;points=[[0,0.5],[1,0.5]];portConstraint=eastwest;" vertex="1" parent="Z9NCAhQjRbjV5haQUCzH-134">
          <mxGeometry y="132.45454545454544" width="246" height="33" as="geometry" />
        </mxCell>
        <mxCell id="Z9NCAhQjRbjV5haQUCzH-139" style="line;strokeWidth=1;fillColor=none;align=left;verticalAlign=middle;spacingTop=-1;spacingLeft=3;spacingRight=3;rotatable=0;labelPosition=right;points=[];portConstraint=eastwest;strokeColor=inherit;" vertex="1" parent="Z9NCAhQjRbjV5haQUCzH-134">
          <mxGeometry y="165.45454545454544" width="246" height="17" as="geometry" />
        </mxCell>
        <mxCell id="Z9NCAhQjRbjV5haQUCzH-140" value="ThreatReport" style="swimlane;fontStyle=1;align=center;verticalAlign=top;childLayout=stackLayout;horizontal=1;startSize=33.45454545454545;horizontalStack=0;resizeParent=1;resizeParentMax=0;resizeLast=0;collapsible=0;marginBottom=0;" vertex="1" parent="1">
          <mxGeometry x="2385" y="1560" width="250" height="182.45454545454544" as="geometry" />
        </mxCell>
        <mxCell id="Z9NCAhQjRbjV5haQUCzH-141" value="-String reportId" style="text;strokeColor=none;fillColor=none;align=left;verticalAlign=top;spacingLeft=4;spacingRight=4;overflow=hidden;rotatable=0;points=[[0,0.5],[1,0.5]];portConstraint=eastwest;" vertex="1" parent="Z9NCAhQjRbjV5haQUCzH-140">
          <mxGeometry y="33.45454545454545" width="250" height="33" as="geometry" />
        </mxCell>
        <mxCell id="Z9NCAhQjRbjV5haQUCzH-142" value="-String threatLevel" style="text;strokeColor=none;fillColor=none;align=left;verticalAlign=top;spacingLeft=4;spacingRight=4;overflow=hidden;rotatable=0;points=[[0,0.5],[1,0.5]];portConstraint=eastwest;" vertex="1" parent="Z9NCAhQjRbjV5haQUCzH-140">
          <mxGeometry y="66.45454545454545" width="250" height="33" as="geometry" />
        </mxCell>
        <mxCell id="Z9NCAhQjRbjV5haQUCzH-143" value="-String description" style="text;strokeColor=none;fillColor=none;align=left;verticalAlign=top;spacingLeft=4;spacingRight=4;overflow=hidden;rotatable=0;points=[[0,0.5],[1,0.5]];portConstraint=eastwest;" vertex="1" parent="Z9NCAhQjRbjV5haQUCzH-140">
          <mxGeometry y="99.45454545454545" width="250" height="33" as="geometry" />
        </mxCell>
        <mxCell id="Z9NCAhQjRbjV5haQUCzH-144" value="-boolean actionRequired" style="text;strokeColor=none;fillColor=none;align=left;verticalAlign=top;spacingLeft=4;spacingRight=4;overflow=hidden;rotatable=0;points=[[0,0.5],[1,0.5]];portConstraint=eastwest;" vertex="1" parent="Z9NCAhQjRbjV5haQUCzH-140">
          <mxGeometry y="132.45454545454544" width="250" height="33" as="geometry" />
        </mxCell>
        <mxCell id="Z9NCAhQjRbjV5haQUCzH-145" style="line;strokeWidth=1;fillColor=none;align=left;verticalAlign=middle;spacingTop=-1;spacingLeft=3;spacingRight=3;rotatable=0;labelPosition=right;points=[];portConstraint=eastwest;strokeColor=inherit;" vertex="1" parent="Z9NCAhQjRbjV5haQUCzH-140">
          <mxGeometry y="165.45454545454544" width="250" height="17" as="geometry" />
        </mxCell>
        <mxCell id="Z9NCAhQjRbjV5haQUCzH-146" value="" style="curved=0;startArrow=block;startSize=16;startFill=0;endArrow=none;exitX=0;exitY=0.79;entryX=0.5;entryY=0;rounded=0;" edge="1" parent="1" source="Z9NCAhQjRbjV5haQUCzH-1" target="Z9NCAhQjRbjV5haQUCzH-25">
          <mxGeometry relative="1" as="geometry">
            <Array as="points">
              <mxPoint x="199" y="802" />
            </Array>
          </mxGeometry>
        </mxCell>
        <mxCell id="Z9NCAhQjRbjV5haQUCzH-147" value="" style="curved=0;startArrow=block;startSize=16;startFill=0;endArrow=none;exitX=0.66;exitY=1;entryX=0;entryY=0;rounded=0;" edge="1" parent="1" source="Z9NCAhQjRbjV5haQUCzH-1" target="Z9NCAhQjRbjV5haQUCzH-34">
          <mxGeometry relative="1" as="geometry">
            <Array as="points">
              <mxPoint x="743" y="802" />
            </Array>
          </mxGeometry>
        </mxCell>
        <mxCell id="Z9NCAhQjRbjV5haQUCzH-148" value="" style="curved=0;startArrow=block;startSize=16;startFill=0;endArrow=none;exitX=0.7;exitY=1;entryX=0;entryY=0.4;rounded=0;" edge="1" parent="1" source="Z9NCAhQjRbjV5haQUCzH-1" target="Z9NCAhQjRbjV5haQUCzH-42">
          <mxGeometry relative="1" as="geometry">
            <Array as="points">
              <mxPoint x="763" y="802" />
            </Array>
          </mxGeometry>
        </mxCell>
        <mxCell id="Z9NCAhQjRbjV5haQUCzH-149" value="has current location" style="curved=0;startArrow=diamondThin;startSize=14;startFill=1;endArrow=none;exitX=0.88;exitY=1;entryX=1;entryY=0.04;rounded=0;" edge="1" parent="1" source="Z9NCAhQjRbjV5haQUCzH-1" target="Z9NCAhQjRbjV5haQUCzH-17">
          <mxGeometry relative="1" as="geometry">
            <Array as="points">
              <mxPoint x="857" y="802" />
            </Array>
          </mxGeometry>
        </mxCell>
        <mxCell id="Z9NCAhQjRbjV5haQUCzH-150" value="1" style="edgeLabel;resizable=0;labelBackgroundColor=none;fontSize=12;align=right;verticalAlign=top;" vertex="1" parent="Z9NCAhQjRbjV5haQUCzH-149">
          <mxGeometry x="-1" relative="1" as="geometry" />
        </mxCell>
        <mxCell id="Z9NCAhQjRbjV5haQUCzH-151" value="1" style="edgeLabel;resizable=0;labelBackgroundColor=none;fontSize=12;align=left;verticalAlign=bottom;" vertex="1" parent="Z9NCAhQjRbjV5haQUCzH-149">
          <mxGeometry x="1" relative="1" as="geometry" />
        </mxCell>
        <mxCell id="Z9NCAhQjRbjV5haQUCzH-152" value="carries" style="curved=0;startArrow=diamondThin;startSize=14;startFill=1;endArrow=none;exitX=0.5;exitY=1;entryX=0;entryY=0.43;rounded=0;" edge="1" parent="1" source="Z9NCAhQjRbjV5haQUCzH-25" target="Z9NCAhQjRbjV5haQUCzH-90">
          <mxGeometry relative="1" as="geometry">
            <Array as="points">
              <mxPoint x="199" y="1139" />
            </Array>
          </mxGeometry>
        </mxCell>
        <mxCell id="Z9NCAhQjRbjV5haQUCzH-153" value="1" style="edgeLabel;resizable=0;labelBackgroundColor=none;fontSize=12;align=left;verticalAlign=top;" vertex="1" parent="Z9NCAhQjRbjV5haQUCzH-152">
          <mxGeometry x="-1" relative="1" as="geometry" />
        </mxCell>
        <mxCell id="Z9NCAhQjRbjV5haQUCzH-154" value="1" style="edgeLabel;resizable=0;labelBackgroundColor=none;fontSize=12;align=right;verticalAlign=bottom;" vertex="1" parent="Z9NCAhQjRbjV5haQUCzH-152">
          <mxGeometry x="1" relative="1" as="geometry" />
        </mxCell>
        <mxCell id="Z9NCAhQjRbjV5haQUCzH-155" value="captures" style="curved=0;startArrow=diamondThin;startSize=14;startFill=1;endArrow=none;exitX=0.5;exitY=1;entryX=1;entryY=0.28;rounded=0;" edge="1" parent="1" source="Z9NCAhQjRbjV5haQUCzH-34" target="Z9NCAhQjRbjV5haQUCzH-116">
          <mxGeometry relative="1" as="geometry">
            <Array as="points">
              <mxPoint x="1002" y="1139" />
            </Array>
          </mxGeometry>
        </mxCell>
        <mxCell id="Z9NCAhQjRbjV5haQUCzH-156" value="1" style="edgeLabel;resizable=0;labelBackgroundColor=none;fontSize=12;align=right;verticalAlign=top;" vertex="1" parent="Z9NCAhQjRbjV5haQUCzH-155">
          <mxGeometry x="-1" relative="1" as="geometry" />
        </mxCell>
        <mxCell id="Z9NCAhQjRbjV5haQUCzH-157" value="many" style="edgeLabel;resizable=0;labelBackgroundColor=none;fontSize=12;align=left;verticalAlign=bottom;" vertex="1" parent="Z9NCAhQjRbjV5haQUCzH-155">
          <mxGeometry x="1" relative="1" as="geometry" />
        </mxCell>
        <mxCell id="Z9NCAhQjRbjV5haQUCzH-158" value="records" style="curved=0;startArrow=diamondThin;startSize=14;startFill=1;endArrow=none;exitX=0.5;exitY=1;entryX=0.02;entryY=0;rounded=0;" edge="1" parent="1" source="Z9NCAhQjRbjV5haQUCzH-42" target="Z9NCAhQjRbjV5haQUCzH-122">
          <mxGeometry relative="1" as="geometry">
            <Array as="points">
              <mxPoint x="1961" y="1139" />
            </Array>
          </mxGeometry>
        </mxCell>
        <mxCell id="Z9NCAhQjRbjV5haQUCzH-159" value="1" style="edgeLabel;resizable=0;labelBackgroundColor=none;fontSize=12;align=right;verticalAlign=top;" vertex="1" parent="Z9NCAhQjRbjV5haQUCzH-158">
          <mxGeometry x="-1" relative="1" as="geometry" />
        </mxCell>
        <mxCell id="Z9NCAhQjRbjV5haQUCzH-160" value="1" style="edgeLabel;resizable=0;labelBackgroundColor=none;fontSize=12;align=left;verticalAlign=bottom;" vertex="1" parent="Z9NCAhQjRbjV5haQUCzH-158">
          <mxGeometry x="1" relative="1" as="geometry" />
        </mxCell>
        <mxCell id="Z9NCAhQjRbjV5haQUCzH-161" value="manages" style="curved=0;startArrow=diamondThin;startSize=14;startFill=0;endArrow=none;exitX=0.26;exitY=1;entryX=1;entryY=0.36;rounded=0;" edge="1" parent="1" source="Z9NCAhQjRbjV5haQUCzH-51" target="Z9NCAhQjRbjV5haQUCzH-25">
          <mxGeometry relative="1" as="geometry">
            <Array as="points">
              <mxPoint x="1013" y="802" />
            </Array>
          </mxGeometry>
        </mxCell>
        <mxCell id="Z9NCAhQjRbjV5haQUCzH-162" value="many" style="edgeLabel;resizable=0;labelBackgroundColor=none;fontSize=12;align=left;verticalAlign=bottom;" vertex="1" parent="Z9NCAhQjRbjV5haQUCzH-161">
          <mxGeometry x="1" relative="1" as="geometry" />
        </mxCell>
        <mxCell id="Z9NCAhQjRbjV5haQUCzH-163" value="processes" style="curved=0;startArrow=diamondThin;startSize=14;startFill=0;endArrow=none;exitX=0.85;exitY=1;entryX=0.5;entryY=0;rounded=0;" edge="1" parent="1" source="Z9NCAhQjRbjV5haQUCzH-51" target="Z9NCAhQjRbjV5haQUCzH-90">
          <mxGeometry relative="1" as="geometry">
            <Array as="points">
              <mxPoint x="1442" y="802" />
            </Array>
          </mxGeometry>
        </mxCell>
        <mxCell id="Z9NCAhQjRbjV5haQUCzH-164" value="many" style="edgeLabel;resizable=0;labelBackgroundColor=none;fontSize=12;align=left;verticalAlign=bottom;" vertex="1" parent="Z9NCAhQjRbjV5haQUCzH-163">
          <mxGeometry x="1" relative="1" as="geometry" />
        </mxCell>
        <mxCell id="Z9NCAhQjRbjV5haQUCzH-165" value="owns" style="curved=0;startArrow=diamondThin;startSize=14;startFill=0;endArrow=none;exitX=0.26;exitY=1;entryX=1;entryY=0.23;rounded=0;" edge="1" parent="1" source="Z9NCAhQjRbjV5haQUCzH-61" target="Z9NCAhQjRbjV5haQUCzH-34">
          <mxGeometry relative="1" as="geometry">
            <Array as="points">
              <mxPoint x="1482" y="802" />
            </Array>
          </mxGeometry>
        </mxCell>
        <mxCell id="Z9NCAhQjRbjV5haQUCzH-166" value="many" style="edgeLabel;resizable=0;labelBackgroundColor=none;fontSize=12;align=left;verticalAlign=bottom;" vertex="1" parent="Z9NCAhQjRbjV5haQUCzH-165">
          <mxGeometry x="1" relative="1" as="geometry" />
        </mxCell>
        <mxCell id="Z9NCAhQjRbjV5haQUCzH-167" value="handles" style="curved=0;startArrow=diamondThin;startSize=14;startFill=0;endArrow=none;exitX=0.61;exitY=1;entryX=0;entryY=0.2;rounded=0;" edge="1" parent="1" source="Z9NCAhQjRbjV5haQUCzH-61" target="Z9NCAhQjRbjV5haQUCzH-128">
          <mxGeometry relative="1" as="geometry">
            <Array as="points">
              <mxPoint x="1954" y="802" />
            </Array>
          </mxGeometry>
        </mxCell>
        <mxCell id="Z9NCAhQjRbjV5haQUCzH-168" value="many" style="edgeLabel;resizable=0;labelBackgroundColor=none;fontSize=12;align=right;verticalAlign=bottom;" vertex="1" parent="Z9NCAhQjRbjV5haQUCzH-167">
          <mxGeometry x="1" relative="1" as="geometry" />
        </mxCell>
        <mxCell id="Z9NCAhQjRbjV5haQUCzH-169" value="operates" style="curved=0;startArrow=diamondThin;startSize=14;startFill=0;endArrow=none;exitX=0.2;exitY=1;entryX=1;entryY=0.19;rounded=0;" edge="1" parent="1" source="Z9NCAhQjRbjV5haQUCzH-68" target="Z9NCAhQjRbjV5haQUCzH-42">
          <mxGeometry relative="1" as="geometry">
            <Array as="points">
              <mxPoint x="2332" y="802" />
            </Array>
          </mxGeometry>
        </mxCell>
        <mxCell id="Z9NCAhQjRbjV5haQUCzH-170" value="many" style="edgeLabel;resizable=0;labelBackgroundColor=none;fontSize=12;align=left;verticalAlign=bottom;" vertex="1" parent="Z9NCAhQjRbjV5haQUCzH-169">
          <mxGeometry x="1" relative="1" as="geometry" />
        </mxCell>
        <mxCell id="Z9NCAhQjRbjV5haQUCzH-171" value="employs" style="curved=0;startArrow=diamondThin;startSize=14;startFill=0;endArrow=none;exitX=0.65;exitY=1;entryX=0.5;entryY=0;rounded=0;" edge="1" parent="1" source="Z9NCAhQjRbjV5haQUCzH-68" target="Z9NCAhQjRbjV5haQUCzH-109">
          <mxGeometry relative="1" as="geometry">
            <Array as="points">
              <mxPoint x="2902" y="802" />
            </Array>
          </mxGeometry>
        </mxCell>
        <mxCell id="Z9NCAhQjRbjV5haQUCzH-172" value="many" style="edgeLabel;resizable=0;labelBackgroundColor=none;fontSize=12;align=left;verticalAlign=bottom;" vertex="1" parent="Z9NCAhQjRbjV5haQUCzH-171">
          <mxGeometry x="1" relative="1" as="geometry" />
        </mxCell>
        <mxCell id="Z9NCAhQjRbjV5haQUCzH-173" value="fulfills" style="curved=0;startArrow=diamondThin;startSize=14;startFill=0;endArrow=none;exitX=0.5;exitY=1;entryX=0.5;entryY=0;rounded=0;" edge="1" parent="1" source="Z9NCAhQjRbjV5haQUCzH-75" target="Z9NCAhQjRbjV5haQUCzH-134">
          <mxGeometry relative="1" as="geometry">
            <Array as="points" />
          </mxGeometry>
        </mxCell>
        <mxCell id="Z9NCAhQjRbjV5haQUCzH-174" value="many" style="edgeLabel;resizable=0;labelBackgroundColor=none;fontSize=12;align=left;verticalAlign=bottom;" vertex="1" parent="Z9NCAhQjRbjV5haQUCzH-173">
          <mxGeometry x="1" relative="1" as="geometry" />
        </mxCell>
        <mxCell id="Z9NCAhQjRbjV5haQUCzH-175" value="has" style="curved=0;startArrow=diamondThin;startSize=14;startFill=0;endArrow=none;exitX=0;exitY=0.7;entryX=0;entryY=0.3;rounded=0;" edge="1" parent="1" source="Z9NCAhQjRbjV5haQUCzH-82" target="Z9NCAhQjRbjV5haQUCzH-101">
          <mxGeometry relative="1" as="geometry">
            <Array as="points">
              <mxPoint x="2147" y="297" />
              <mxPoint x="2147" y="802" />
            </Array>
          </mxGeometry>
        </mxCell>
        <mxCell id="Z9NCAhQjRbjV5haQUCzH-176" value="many" style="edgeLabel;resizable=0;labelBackgroundColor=none;fontSize=12;align=left;verticalAlign=bottom;" vertex="1" parent="Z9NCAhQjRbjV5haQUCzH-175">
          <mxGeometry x="1" relative="1" as="geometry" />
        </mxCell>
        <mxCell id="Z9NCAhQjRbjV5haQUCzH-177" value="contracts" style="curved=0;startArrow=none;endArrow=none;exitX=0.08;exitY=1;entryX=0.5;entryY=0;rounded=0;" edge="1" parent="1" source="Z9NCAhQjRbjV5haQUCzH-82" target="Z9NCAhQjRbjV5haQUCzH-68">
          <mxGeometry relative="1" as="geometry">
            <Array as="points">
              <mxPoint x="2708" y="297" />
            </Array>
          </mxGeometry>
        </mxCell>
        <mxCell id="Z9NCAhQjRbjV5haQUCzH-178" value="incubated" style="curved=0;startArrow=none;endArrow=none;exitX=0.92;exitY=1;entryX=0.5;entryY=0;rounded=0;" edge="1" parent="1" source="Z9NCAhQjRbjV5haQUCzH-82" target="Z9NCAhQjRbjV5haQUCzH-75">
          <mxGeometry relative="1" as="geometry">
            <Array as="points">
              <mxPoint x="3286" y="297" />
            </Array>
          </mxGeometry>
        </mxCell>
        <mxCell id="Z9NCAhQjRbjV5haQUCzH-179" value="places" style="curved=0;startArrow=diamondThin;startSize=14;startFill=0;endArrow=none;exitX=0.5;exitY=1;entryX=1;entryY=0.42;rounded=0;" edge="1" parent="1" source="Z9NCAhQjRbjV5haQUCzH-101" target="Z9NCAhQjRbjV5haQUCzH-90">
          <mxGeometry relative="1" as="geometry">
            <Array as="points">
              <mxPoint x="2639" y="1139" />
            </Array>
          </mxGeometry>
        </mxCell>
        <mxCell id="Z9NCAhQjRbjV5haQUCzH-180" value="many" style="edgeLabel;resizable=0;labelBackgroundColor=none;fontSize=12;align=left;verticalAlign=bottom;" vertex="1" parent="Z9NCAhQjRbjV5haQUCzH-179">
          <mxGeometry x="1" relative="1" as="geometry" />
        </mxCell>
        <mxCell id="Z9NCAhQjRbjV5haQUCzH-181" value="creates" style="curved=0;startArrow=diamondThin;startSize=14;startFill=0;endArrow=none;exitX=0.5;exitY=1;entryX=1;entryY=0.28;rounded=0;" edge="1" parent="1" source="Z9NCAhQjRbjV5haQUCzH-109" target="Z9NCAhQjRbjV5haQUCzH-140">
          <mxGeometry relative="1" as="geometry">
            <Array as="points">
              <mxPoint x="2902" y="1524" />
            </Array>
          </mxGeometry>
        </mxCell>
        <mxCell id="Z9NCAhQjRbjV5haQUCzH-182" value="1" style="edgeLabel;resizable=0;labelBackgroundColor=none;fontSize=12;align=right;verticalAlign=top;" vertex="1" parent="Z9NCAhQjRbjV5haQUCzH-181">
          <mxGeometry x="-1" relative="1" as="geometry" />
        </mxCell>
        <mxCell id="Z9NCAhQjRbjV5haQUCzH-183" value="many" style="edgeLabel;resizable=0;labelBackgroundColor=none;fontSize=12;align=left;verticalAlign=bottom;" vertex="1" parent="Z9NCAhQjRbjV5haQUCzH-181">
          <mxGeometry x="1" relative="1" as="geometry" />
        </mxCell>
        <mxCell id="Z9NCAhQjRbjV5haQUCzH-184" value="analyzed into" style="curved=0;startArrow=diamondThin;startSize=14;startFill=0;endArrow=none;exitX=0.5;exitY=1;entryX=0;entryY=0.17;rounded=0;" edge="1" parent="1" source="Z9NCAhQjRbjV5haQUCzH-122" target="Z9NCAhQjRbjV5haQUCzH-140">
          <mxGeometry relative="1" as="geometry">
            <Array as="points">
              <mxPoint x="2245" y="1524" />
            </Array>
          </mxGeometry>
        </mxCell>
        <mxCell id="Z9NCAhQjRbjV5haQUCzH-185" value="1" style="edgeLabel;resizable=0;labelBackgroundColor=none;fontSize=12;align=right;verticalAlign=top;" vertex="1" parent="Z9NCAhQjRbjV5haQUCzH-184">
          <mxGeometry x="-1" relative="1" as="geometry" />
        </mxCell>
        <mxCell id="Z9NCAhQjRbjV5haQUCzH-186" value="1" style="edgeLabel;resizable=0;labelBackgroundColor=none;fontSize=12;align=left;verticalAlign=bottom;" vertex="1" parent="Z9NCAhQjRbjV5haQUCzH-184">
          <mxGeometry x="1" relative="1" as="geometry" />
        </mxCell>
      </root>
    </mxGraphModel>
  </diagram>
</mxfile>
